Coordinates
version=1
nRows=13
nColumns=26
inDegrees=yes

Units are S.I. units (second, meters, Newtons, ...)
Angles are in degrees.

endheader
time	pelvis_tilt	pelvis_list	pelvis_rotation	pelvis_tx	pelvis_ty	pelvis_tz	hip_flexion_r	hip_adduction_r	hip_rotation_r	knee_angle_r	knee_angle_r_beta	ankle_angle_r	subtalar_angle_r	mtp_angle_r	hip_flexion_l	hip_adduction_l	hip_rotation_l	knee_angle_l	knee_angle_l_beta	ankle_angle_l	subtalar_angle_l	mtp_angle_l	lumbar_extension	lumbar_bending	lumbar_rotation
      0.54166667	      3.05432307	      2.93934017	      4.80581231	      0.54776622	      0.98957865	      0.15255712	     19.62718005	     -5.16453542	     -6.71486836	      7.54189187	      7.54189187	     -2.47001131	      0.00000000	      0.00000000	    -12.81507485	      2.83721070	     -6.62263710	     12.25247716	     12.25247716	     15.73325124	      0.00000000	      0.00000000	    -16.41210971	     -1.09589506	     -2.40495156
      0.55000000	      3.36892551	      2.72612213	      5.13112193	      0.55803047	      0.98876223	      0.15277137	     19.22972105	     -5.03168871	     -7.07725406	      8.55136089	      8.55136089	     -3.20804637	      0.00000000	      0.00000000	    -13.49272056	      2.37715597	     -6.66078763	     12.79627336	     12.79627336	     15.98650765	      0.00000000	      0.00000000	    -16.57754395	     -0.54951992	     -2.59231825
      0.55833333	      3.78467482	      2.52826150	      5.53077014	      0.56853098	      0.98822210	      0.15298597	     18.63831508	     -4.87671652	     -7.67671027	      9.50786149	      9.50786149	     -3.98463919	      0.00000000	      0.00000000	    -14.21169890	      1.85442728	     -6.63482385	     13.51605911	     13.51605911	     16.20237509	      0.00000000	      0.00000000	    -16.83148831	     -0.00737966	     -2.85223753
      0.56666667	      4.24036431	      2.32557903	      5.90054371	      0.57910193	      0.98791917	      0.15322892	     17.82151728	     -4.69133827	     -8.19099875	     10.00508529	     10.00508529	     -4.89060227	      0.00000000	      0.00000000	    -14.97250382	      1.33678351	     -6.67824853	     14.18481023	     14.18481023	     16.23652218	      0.00000000	      0.00000000	    -17.11775422	      0.53667745	     -3.01472320
      0.57500000	      4.71020982	      2.17603195	      6.27223805	      0.58980681	      0.98782215	      0.15355295	     16.83299828	     -4.54829796	     -8.65476816	     10.15917174	     10.15917174	     -5.78935583	      0.00000000	      0.00000000	    -15.64495328	      0.84426333	     -6.68988414	     15.01081278	     15.01081278	     16.14426142	      0.00000000	      0.00000000	    -17.40157045	      1.01934869	     -3.15117956
      0.58333333	      5.14024358	      2.09678906	      6.61392539	      0.60048954	      0.98773157	      0.15418501	     15.89727979	     -4.43292510	     -9.24874812	     10.37367580	     10.37367580	     -7.22422119	      0.00000000	      0.00000000	    -16.21306701	      0.38498906	     -6.71339932	     15.97926466	     15.97926466	     16.01340647	      0.00000000	      0.00000000	    -17.64288385	      1.37794687	     -3.21244929
      0.59166667	      5.36981766	      2.08599046	      6.72713644	      0.61108966	      0.98750762	      0.15503035	     15.11233023	     -4.40074519	     -9.18231917	     10.25877642	     10.25877642	     -6.71093095	      0.00000000	      0.00000000	    -16.51174176	      0.09038896	     -6.86355622	     17.06385668	     17.06385668	     15.76548995	      0.00000000	      0.00000000	    -17.68168806	      1.58651638	     -3.00757533
      0.60000000	      5.54114664	      2.14755096	      6.79481717	      0.62118781	      0.98730444	      0.15625428	     14.57347543	     -4.37814504	     -9.36020781	     10.61448587	     10.61448587	     -6.86454221	      0.00000000	      0.00000000	    -16.54236769	     -0.14029213	     -6.91652269	     18.51037178	     18.51037178	     15.55023837	      0.00000000	      0.00000000	    -17.73050129	      1.65608883	     -2.77536341
      0.60833333	      5.57770302	      2.07455315	      6.79881649	      0.63084949	      0.98716116	      0.15760453	     14.33546720	     -4.20569991	     -9.51532148	     11.29409485	     11.29409485	     -6.88927798	      0.00000000	      0.00000000	    -16.04136747	     -0.54806889	     -7.06144812	     20.57802562	     20.57802562	     15.33227472	      0.00000000	      0.00000000	    -17.67088914	      1.84346163	     -2.39686509
      0.61666667	      5.66633255	      1.81951679	      6.79925363	      0.64035928	      0.98762437	      0.15901192	     14.13474293	     -3.82434113	     -9.63286313	     12.16437893	     12.16437893	     -6.39517871	      0.00000000	      0.00000000	    -15.33475645	     -1.20403382	     -7.27300219	     23.02439530	     23.02439530	     14.92241425	      0.00000000	      0.00000000	    -17.68637899	      2.23030915	     -1.95790251
      0.62500000	      5.97184052	      1.34829261	      6.90145300	      0.64986881	      0.98888620	      0.16052874	     13.67880465	     -3.20349364	     -9.90443547	     13.10199945	     13.10199945	     -5.59384340	      0.00000000	      0.00000000	    -14.59826159	     -2.21922862	     -7.42938459	     25.83019163	     25.83019163	     14.14687003	      0.00000000	      0.00000000	    -17.93769734	      2.88552885	     -1.55107870
      0.63333333	      6.15461367	      0.91356039	      6.98359368	      0.65915699	      0.99003591	      0.16201360	     13.39701235	     -2.62468395	    -10.10172988	     14.04318608	     14.04318608	     -4.82162959	      0.00000000	      0.00000000	    -13.38625704	     -3.26856885	     -7.56126087	     29.18535546	     29.18535546	     13.18934659	      0.00000000	      0.00000000	    -18.08609293	      3.47395069	     -1.16220348
      0.64166667	      6.43355047	      0.40829928	      7.06890725	      0.66845572	      0.99132913	      0.16359087	     12.91973413	     -1.94762722	    -10.29728775	     14.83601192	     14.83601192	     -4.03467702	      0.00000000	      0.00000000	    -12.17671791	     -4.39288473	     -7.59125729	     32.62259432	     32.62259432	     12.03210356	      0.00000000	      0.00000000	    -18.33743055	      4.11843283	     -0.75947051
